{"title":"Lady GaGa Ft. Beyonce - Telephone [1920x1080p] BR Rip (5.1 Chnl)","uid":5915107,"size":1488340992,"categoryP":"video","categoryS":"music_videos","magnet":"?xt=urn:btih:c98c41491c51f7e006491636d71d85a016e95ddd&amp;dn=Lady+GaGa+Ft.+Beyonce+-+Telephone+%5B1920x1080p%5D+BR+Rip+%285.1+Chnl%29&amp;tr=udp%3A%2F%2Ftracker.openbittorrent.com%3A80&amp;tr=udp%3A%2F%2Fopen.demonii.com%3A1337&amp;tr=udp%3A%2F%2Ftracker.coppersurfer.tk%3A6969&amp;tr=udp%3A%2F%2Fexodus.desync.com%3A6969","seeders":0,"leechers":1,"uploader":"ankurgow3","files":1,"time":1288189404,"description":"Video\nID                               : 4113 (0x1011)\nMenu ID                          : 1 (0x1)\nFormat                           : AVC\nFormat/Info                      : Advanced Video Codec\nFormat profile                   : &lt;a class=&quot;__cf_email__&quot; href=&quot;/cdn-cgi/l/email-protection&quot; data-cfemail=&quot;622a0b050a222e564c53&quot;&gt;[email&amp;#160;protected]&lt;/a&gt;&lt;script cf-hash='f9e31' type=&quot;text/javascript&quot;&gt;\n/* &lt;![CDATA[ */!function(){try{var t=&quot;currentScript&quot;in document?document.currentScript:function(){for(var t=document.getElementsByTagName(&quot;script&quot;),e=t.length;e--;)if(t[e].getAttribute(&quot;cf-hash&quot;))return t[e]}();if(t&amp;&amp;t.previousSibling){var e,r,n,i,c=t.previousSibling,a=c.getAttribute(&quot;data-cfemail&quot;);if(a){for(e=&quot;&quot;,r=parseInt(a.substr(0,2),16),n=2;a.length-n;n+=2)i=parseInt(a.substr(n,2),16)^r,e+=String.fromCharCode(i);e=document.createTextNode(e),c.parentNode.replaceChild(e,c)}}}catch(u){}}();/* ]]&gt; */&lt;/script&gt;\nFormat settings, CABAC           : Yes\nFormat settings, ReFrames        : 3 frames\nCodec ID                         : 27\nDuration                         : 9mn 31s\nBit rate mode                    : Variable\nBit rate                         : 17.6 Mbps\nMaximum bit rate                 : 18.0 Mbps\nWidth                            : 1 920 pixels\nHeight                           : 1 080 pixels\nDisplay aspect ratio             : 16:9\nFrame rate                       : 23.976 fps\nColor space                      : YUV\nChroma subsampling               : 4:2:0\nBit depth                        : 8 bits\nScan type                        : Progressive\nBits/(Pixel*Frame)               : 0.354\nStream size                      : 1.19 GiB (86%)\nWriting library                  : x264 core 79 r1352M d487de4\nEncoding settings                : cabac=1 / ref=3 / deblock=1:0:0 / analyse=0x3:0x113 / me=umh / subme=7 / psy=1 / psy_rd=1.0:0.3 / mixed_ref=1 / me_range=16 / chroma_me=1 / trellis=1 / 8x8dct=1 / cqm=0 / deadzone=21,11 / chroma_qp_offset=-4 / threads=3 / nr=0 / decimate=1 / mbaff=0 / constrained_intra=0 / bframes=3 / b_pyramid=0 / b_adapt=1 / b_bias=0 / direct=3 / wpredb=1 / wpredp=0 / keyint=24 / keyint_min=2 / scenecut=40 / rc_lookahead=24 / rc=2pass / mbtree=1 / bitrate=17616 / ratetol=1.0 / qcomp=0.60 / qpmin=10 / qpmax=51 / qpstep=4 / cplxblur=20.0 / qblur=0.5 / vbv_maxrate=18000 / vbv_bufsize=18000 / ip_ratio=1.10 / aq=1:1.00 / pulldown=0 / nal_hrd=1\n\nAudio #1\nID                               : 4352 (0x1100)\nMenu ID                          : 1 (0x1)\nFormat                           : DTS\nFormat/Info                      : Digital Theater Systems\nCodec ID                         : 130\nDuration                         : 9mn 31s\nBit rate mode                    : Constant\nBit rate                         : 1 510 Kbps\nChannel(s)                       : 6 channels\nChannel positions                : Front: L C R, Side: L R, LFE\nSampling rate                    : 48.0 KHz\nBit depth                        : 24 bits\nStream size                      : 103 MiB (7%)\nLanguage                         : English\n\nAudio #2\nID                               : 4353 (0x1101)\nMenu ID                          : 1 (0x1)\nFormat                           : AC-3\nFormat/Info                      : Audio Coding 3\nMode extension                   : CM (complete main)\nCodec ID                         : 129\nDuration                         : 9mn 31s\nBit rate mode                    : Constant\nBit rate                         : 640 Kbps\nChannel(s)                       : 6 channels\nChannel positions                : Front: L C R, Side: L R, LFE\nSampling rate                    : 48.0 KHz\nBit depth                        : 16 bits\nStream size                      : 43.6 MiB (3%)\nLanguage                         : English\n\nScreens:\n\n&lt;img&gt;http://lh3.ggpht.com/_-wgtl62Wh6c/TMgZsumQhHI/AAAAAAAAAhk/Irnn0pEbm3g/s640/LadyGagaftBeyonce__TelephoneHD-1080.jpg&lt;/img&gt;","torrent":{"xt":"urn:btih:c98c41491c51f7e006491636d71d85a016e95ddd","amp;dn":"Lady+GaGa+Ft.+Beyonce+-+Telephone+%5B1920x1080p%5D+BR+Rip+%285.1+Chnl%29","amp;tr":["udp%3A%2F%2Ftracker.openbittorrent.com%3A80","udp%3A%2F%2Fopen.demonii.com%3A1337","udp%3A%2F%2Ftracker.coppersurfer.tk%3A6969","udp%3A%2F%2Fexodus.desync.com%3A6969"],"infoHash":"c98c41491c51f7e006491636d71d85a016e95ddd","infoHashBuffer":{"type":"Buffer","data":[201,140,65,73,28,81,247,224,6,73,22,54,215,29,133,160,22,233,93,221]},"announce":[],"urlList":[]}}